<?xml version="1.0" standalone="no"?>
<!DOCTYPE svg PUBLIC "-//W3C//DTD SVG 20010904//EN"
 "http://www.w3.org/TR/2001/REC-SVG-20010904/DTD/svg10.dtd">
<svg version="1.0" xmlns="http://www.w3.org/2000/svg"
 width="575.000000pt" height="539.000000pt" viewBox="0 0 575.000000 539.000000"
 preserveAspectRatio="xMidYMid meet">

<g transform="translate(0.000000,539.000000) scale(0.100000,-0.100000)"
fill="#000000" stroke="none">
<path d="M3333 5243 c26 -2 67 -2 90 0 23 2 2 3 -48 3 -49 0 -68 -1 -42 -3z"/>
<path d="M3193 5233 c9 -2 23 -2 30 0 6 3 -1 5 -18 5 -16 0 -22 -2 -12 -5z"/>
<path d="M3600 5225 c133 -22 259 -62 334 -107 80 -47 208 -166 277 -256 216
-285 293 -757 189 -1167 -29 -118 -94 -269 -149 -349 -177 -256 -442 -404
-776 -432 l-90 -8 65 -15 c106 -24 389 -20 518 7 328 71 559 231 722 502 181
300 205 716 62 1048 -115 265 -346 505 -614 635 -165 80 -375 138 -554 151
l-69 6 85 -15z"/>
<path d="M3118 5223 c6 -2 18 -2 25 0 6 3 1 5 -13 5 -14 0 -19 -2 -12 -5z"/>
<path d="M3058 5213 c6 -2 18 -2 25 0 6 3 1 5 -13 5 -14 0 -19 -2 -12 -5z"/>
<path d="M3018 5203 c7 -3 16 -2 19 1 4 3 -2 6 -13 5 -11 0 -14 -3 -6 -6z"/>
<path d="M2978 5193 c7 -3 16 -2 19 1 4 3 -2 6 -13 5 -11 0 -14 -3 -6 -6z"/>
<path d="M2938 5183 c7 -3 16 -2 19 1 4 3 -2 6 -13 5 -11 0 -14 -3 -6 -6z"/>
<path d="M2880 5173 c-8 -3 -39 -15 -68 -25 -29 -11 -52 -21 -50 -23 2 -2 39
9 83 25 44 16 73 29 65 29 -8 0 -22 -3 -30 -6z"/>
<path d="M2698 5099 c-21 -11 -38 -22 -38 -24 0 -5 79 32 89 41 12 11 -18 1
-51 -17z"/>
<path d="M2605 5043 c-77 -51 -126 -96 -171 -157 -45 -59 -99 -154 -92 -161 2
-2 19 26 38 63 40 77 136 183 215 238 49 33 62 44 52 44 -1 0 -20 -12 -42 -27z"/>
<path d="M3626 5035 c-332 -91 -581 -462 -665 -990 -37 -236 -41 -373 -40
-1281 1 -1001 -8 -1225 -61 -1577 -70 -460 -213 -751 -447 -907 -80 -54 -148
-82 -250 -104 -57 -12 -62 -15 -30 -15 93 -2 290 54 422 121 499 252 761 811
801 1714 5 105 11 154 18 154 24 0 168 -103 246 -177 97 -91 155 -165 210
-264 22 -41 40 -69 40 -64 0 22 -91 169 -146 237 -67 82 -195 190 -294 249
l-70 41 0 272 c0 149 -3 314 -6 367 -6 90 -5 97 12 102 14 3 15 5 3 6 -21 1
-29 135 -29 517 0 517 27 883 80 1088 61 235 164 414 287 495 l46 31 -39 -1
c-21 0 -61 -7 -88 -14z"/>
<path d="M2321 4664 c0 -11 3 -14 6 -6 3 7 2 16 -1 19 -3 4 -6 -2 -5 -13z"/>
<path d="M2311 4624 c0 -11 3 -14 6 -6 3 7 2 16 -1 19 -3 4 -6 -2 -5 -13z"/>
<path d="M1855 4579 c-265 -39 -522 -215 -638 -436 -120 -231 -140 -551 -51
-809 23 -66 24 -76 11 -101 -8 -15 -17 -39 -21 -53 -3 -14 4 -3 17 25 l23 50
39 -75 c28 -54 63 -99 125 -160 163 -162 358 -241 585 -239 l70 1 -71 17
c-178 44 -322 172 -420 376 -42 87 -85 219 -97 298 -6 37 -5 38 46 64 29 14
75 34 102 45 28 10 37 16 20 13 -16 -3 -62 -21 -101 -39 l-72 -34 -6 45 c-33
243 59 576 208 755 123 147 307 245 466 249 l55 2 -50 7 c-65 11 -164 10 -240
-1z"/>
<path d="M2301 4561 c-1 -17 -5 -21 -17 -17 -9 3 -28 8 -42 11 -15 3 -8 -2 16
-11 37 -14 42 -20 43 -47 2 -31 2 -31 6 -4 5 32 4 32 51 8 38 -20 85 -65 95
-91 4 -12 6 -12 6 2 1 23 -60 81 -108 103 -29 13 -41 25 -44 44 -4 24 -4 24
-6 2z"/>
<path d="M2178 4563 c7 -3 16 -2 19 1 4 3 -2 6 -13 5 -11 0 -14 -3 -6 -6z"/>
<path d="M2311 4443 c-3 -44 50 -113 86 -113 24 0 63 32 63 51 0 7 -9 0 -21
-15 -38 -49 -85 -28 -113 50 -8 21 -15 34 -15 27z"/>
<path d="M2107 3719 c-20 -5 -56 -18 -80 -30 -43 -23 -135 -89 -123 -89 4 0
-1 -12 -12 -27 -29 -42 -42 -90 -42 -155 0 -88 34 -140 103 -159 32 -8 48 -7
84 6 52 20 76 59 70 113 l-4 37 -1 -41 c-3 -76 -58 -82 -103 -12 -16 27 -19
46 -17 105 2 39 7 75 11 79 11 12 67 -46 88 -91 10 -22 19 -33 19 -24 0 21
-53 103 -79 121 l-21 15 29 45 c40 63 105 100 190 108 l66 7 -70 1 c-38 0 -87
-4 -108 -9z"/>
<path d="M2300 3710 c8 -5 20 -10 25 -10 6 0 3 5 -5 10 -8 5 -19 10 -25 10 -5
0 -3 -5 5 -10z"/>
<path d="M2383 3661 c27 -24 61 -67 77 -95 17 -28 30 -46 30 -39 0 23 -86 136
-120 156 -31 18 -29 15 13 -22z"/>
<path d="M1773 3623 c9 -2 25 -2 35 0 9 3 1 5 -18 5 -19 0 -27 -2 -17 -5z"/>
<path d="M1683 3613 c9 -2 23 -2 30 0 6 3 -1 5 -18 5 -16 0 -22 -2 -12 -5z"/>
<path d="M1858 3613 c6 -2 18 -2 25 0 6 3 1 5 -13 5 -14 0 -19 -2 -12 -5z"/>
<path d="M1638 3603 c7 -3 16 -2 19 1 4 3 -2 6 -13 5 -11 0 -14 -3 -6 -6z"/>
<path d="M2501 3464 c0 -11 3 -14 6 -6 3 7 2 16 -1 19 -3 4 -6 -2 -5 -13z"/>
<path d="M2512 3420 c0 -14 2 -19 5 -12 2 6 2 18 0 25 -3 6 -5 1 -5 -13z"/>
<path d="M2523 3325 c0 -22 2 -30 4 -17 2 12 2 30 0 40 -3 9 -5 -1 -4 -23z"/>
<path d="M2512 3230 c0 -14 2 -19 5 -12 2 6 2 18 0 25 -3 6 -5 1 -5 -13z"/>
<path d="M2501 3184 c0 -11 3 -14 6 -6 3 7 2 16 -1 19 -3 4 -6 -2 -5 -13z"/>
<path d="M2488 3145 c-3 -11 -9 -29 -13 -40 -3 -11 1 -7 10 8 9 16 15 33 12
40 -2 6 -6 3 -9 -8z"/>
<path d="M1131 3104 c0 -11 3 -14 6 -6 3 7 2 16 -1 19 -3 4 -6 -2 -5 -13z"/>
<path d="M1122 3060 c0 -14 2 -19 5 -12 2 6 2 18 0 25 -3 6 -5 1 -5 -13z"/>
<path d="M2435 3030 c-19 -38 -107 -126 -145 -145 -17 -9 -30 -18 -30 -21 0
-14 70 35 116 80 45 46 94 116 80 116 -3 0 -12 -13 -21 -30z"/>
<path d="M1112 2990 c0 -19 2 -27 5 -17 2 9 2 25 0 35 -3 9 -5 1 -5 -18z"/>
<path d="M1112 2835 c0 -16 2 -22 5 -12 2 9 2 23 0 30 -3 6 -5 -1 -5 -18z"/>
<path d="M2200 2840 c-8 -5 -10 -10 -5 -10 6 0 17 5 25 10 8 5 11 10 5 10 -5
0 -17 -5 -25 -10z"/>
<path d="M2145 2820 c-13 -6 -15 -9 -5 -9 8 0 22 4 30 9 18 12 2 12 -25 0z"/>
<path d="M2098 2803 c7 -3 16 -2 19 1 4 3 -2 6 -13 5 -11 0 -14 -3 -6 -6z"/>
<path d="M2043 2793 c9 -2 23 -2 30 0 6 3 -1 5 -18 5 -16 0 -22 -2 -12 -5z"/>
<path d="M1122 2770 c0 -14 2 -19 5 -12 2 6 2 18 0 25 -3 6 -5 1 -5 -13z"/>
<path d="M1130 2730 c0 -8 11 -41 24 -73 67 -162 196 -315 316 -374 117 -57
259 -65 363 -21 59 26 130 102 151 165 9 26 16 75 16 111 l0 64 -47 -43 c-55
-48 -133 -87 -183 -91 -34 -3 -35 -2 -32 30 2 17 -2 48 -9 69 -10 32 -13 34
-22 17 -16 -30 -70 -84 -100 -100 -111 -59 -286 -21 -374 81 -20 22 -51 71
-69 110 -19 38 -34 63 -34 55z"/>
<path d="M2603 2293 c15 -2 37 -2 50 0 12 2 0 4 -28 4 -27 0 -38 -2 -22 -4z"/>
<path d="M2803 2293 c15 -2 39 -2 55 0 15 2 2 4 -28 4 -30 0 -43 -2 -27 -4z"/>
<path d="M2503 2283 c9 -2 23 -2 30 0 6 3 -1 5 -18 5 -16 0 -22 -2 -12 -5z"/>
<path d="M2438 2273 c6 -2 18 -2 25 0 6 3 1 5 -13 5 -14 0 -19 -2 -12 -5z"/>
<path d="M2388 2263 c7 -3 16 -2 19 1 4 3 -2 6 -13 5 -11 0 -14 -3 -6 -6z"/>
<path d="M2348 2253 c7 -3 16 -2 19 1 4 3 -2 6 -13 5 -11 0 -14 -3 -6 -6z"/>
<path d="M2308 2243 c7 -3 16 -2 19 1 4 3 -2 6 -13 5 -11 0 -14 -3 -6 -6z"/>
<path d="M2222 2223 c-24 -8 -41 -17 -39 -19 2 -2 28 5 58 15 30 11 47 20 39
19 -8 0 -34 -6 -58 -15z"/>
<path d="M2140 2190 c-8 -5 -10 -10 -5 -10 6 0 17 5 25 10 8 5 11 10 5 10 -5
0 -17 -5 -25 -10z"/>
<path d="M2025 2137 c-160 -84 -299 -197 -381 -309 l-36 -48 -63 0 c-92 0
-159 -16 -251 -61 -172 -84 -302 -249 -360 -460 -14 -49 -18 -101 -18 -219 0
-173 11 -231 70 -358 135 -294 458 -508 793 -527 l86 -5 -70 14 c-380 75 -595
371 -595 820 0 68 7 152 15 191 30 140 130 301 233 375 62 45 72 48 73 23 1
-11 4 -9 8 7 11 40 120 74 241 75 85 0 101 -3 153 -28 32 -16 65 -40 74 -53
14 -22 14 -28 -6 -73 -11 -28 -21 -56 -21 -63 1 -7 10 9 20 36 11 27 23 53 29
59 5 5 23 -19 45 -63 20 -40 36 -67 36 -60 0 7 -17 44 -37 82 l-38 70 65 61
c36 34 52 54 35 44 -16 -10 -47 -37 -67 -60 l-37 -40 -61 56 c-66 61 -169 117
-264 141 -32 9 -61 18 -64 20 -9 9 70 106 131 162 80 73 160 127 272 186 50
26 86 47 80 47 -5 0 -46 -19 -90 -42z"/>
<path d="M2228 1714 c-56 -17 -63 -28 -14 -18 47 8 133 -18 178 -56 84 -69
130 -234 108 -383 -21 -146 -72 -250 -163 -334 -76 -70 -155 -102 -282 -113
l-80 -7 73 -2 c171 -3 334 59 442 168 170 171 218 423 117 614 -35 67 -89 111
-161 132 -62 19 -156 18 -218 -1z"/>
<path d="M3877 1600 c4 -19 8 -87 8 -150 0 -105 -2 -120 -28 -175 -33 -71 -57
-98 -115 -132 -36 -21 -52 -25 -102 -21 -57 4 -58 3 -48 -16 6 -12 20 -32 32
-44 l21 -24 -29 -23 c-30 -24 -88 -45 -127 -45 -13 0 -34 -3 -47 -6 l-23 -7
28 -29 c49 -52 100 -72 178 -72 80 0 113 14 182 77 50 46 93 125 114 207 21
84 16 287 -10 383 -21 81 -49 144 -34 77z"/>
<path d="M1512 1525 c0 -16 2 -22 5 -12 2 9 2 23 0 30 -3 6 -5 -1 -5 -18z"/>
<path d="M1503 1420 c0 -25 2 -35 4 -22 2 12 2 32 0 45 -2 12 -4 2 -4 -23z"/>
<path d="M1962 1400 c0 -14 2 -19 5 -12 2 6 2 18 0 25 -3 6 -5 1 -5 -13z"/>
<path d="M2101 1374 c0 -11 3 -14 6 -6 3 7 2 16 -1 19 -3 4 -6 -2 -5 -13z"/>
<path d="M1512 1310 c0 -14 2 -19 5 -12 2 6 2 18 0 25 -3 6 -5 1 -5 -13z"/>
<path d="M1965 1291 c5 -35 30 -71 48 -71 5 0 0 8 -11 18 -12 9 -26 33 -31 52
l-11 35 5 -34z"/>
<path d="M2087 1257 l-17 -32 20 24 c17 20 26 41 18 41 -2 0 -11 -15 -21 -33z"/>
<path d="M1521 1254 c0 -11 3 -14 6 -6 3 7 2 16 -1 19 -3 4 -6 -2 -5 -13z"/>
<path d="M1531 1220 c0 -8 6 -28 14 -45 17 -39 18 -21 0 25 -7 19 -14 28 -14
20z"/>
<path d="M1570 1113 c0 -15 70 -117 108 -157 38 -40 147 -116 166 -116 6 0
-11 13 -39 29 -77 45 -130 95 -185 177 -27 42 -50 72 -50 67z"/>
<path d="M1870 830 c8 -5 22 -9 30 -9 10 0 8 3 -5 9 -27 12 -43 12 -25 0z"/>
<path d="M1928 813 c6 -2 18 -2 25 0 6 3 1 5 -13 5 -14 0 -19 -2 -12 -5z"/>
<path d="M2028 153 c12 -2 30 -2 40 0 9 3 -1 5 -23 4 -22 0 -30 -2 -17 -4z"/>
</g>
</svg>
